<svg width="30" height="30" viewBox="0 0 30 30" fill="none" xmlns="http://www.w3.org/2000/svg">
<path d="M2.10937 2.10937C0 4.21875 0 7.61384 0 14.3973V15.6027C0 22.3862 0 25.7812 2.10937 27.8906C4.21875 30 7.61384 30 14.3973 30H15.6027C22.3862 30 25.7812 30 27.8906 27.8906C30 25.7812 30 22.3862 30 15.6027V14.3973C30 7.61384 30 4.21875 27.8906 2.10937C25.7812 0 22.3862 0 15.6027 0H14.3973C7.61384 0 4.21875 0 2.10937 2.10937ZM5.0625 9.12723H8.48437C8.59821 14.8527 11.1228 17.2768 13.125 17.7723V9.12723H16.3527V14.0625C18.3281 13.8482 20.3973 11.5982 21.1004 9.12723H24.3281C24.0603 10.4062 23.5379 11.625 22.7813 12.6964C22.0246 13.7679 21.0603 14.6719 19.9353 15.3482C21.1875 15.971 22.2924 16.8482 23.1763 17.933C24.067 19.0112 24.7098 20.2634 25.0781 21.6094H21.5223C21.2009 20.4442 20.5312 19.3929 19.6138 18.6027C18.6897 17.8058 17.558 17.3036 16.3527 17.1496V21.6094H15.9643C9.12723 21.6094 5.22321 16.9219 5.0625 9.12723Z" fill="black"/>
</svg>
