<svg width="65" height="65" viewBox="0 0 65 65" fill="none" xmlns="http://www.w3.org/2000/svg">
<rect width="65" height="65" fill="#1E1E1E"/>
<g clip-path="url(#clip0_14_75)">
<path d="M33 32.4999C33 30.5992 33.7375 28.7763 35.0503 27.4323C36.363 26.0883 38.1435 25.3333 40 25.3333C41.8565 25.3333 43.637 26.0883 44.9497 27.4323C46.2625 28.7763 47 30.5992 47 32.4999C47 34.4006 46.2625 36.2235 44.9497 37.5675C43.637 38.9115 41.8565 39.6666 40 39.6666C38.1435 39.6666 36.363 38.9115 35.0503 37.5675C33.7375 36.2235 33 34.4006 33 32.4999V32.4999Z" fill="#1ABCFE"/>
<path d="M19 46.8334C19 44.9327 19.7375 43.1098 21.0503 41.7658C22.363 40.4218 24.1435 39.6667 26 39.6667H33V46.8334C33 48.7341 32.2625 50.557 30.9497 51.901C29.637 53.245 27.8565 54.0001 26 54.0001C24.1435 54.0001 22.363 53.245 21.0503 51.901C19.7375 50.557 19 48.7341 19 46.8334V46.8334Z" fill="#0ACF83"/>
<path d="M33 11V25.3333H40C41.8565 25.3333 43.637 24.5783 44.9497 23.2343C46.2625 21.8903 47 20.0674 47 18.1667C47 16.2659 46.2625 14.4431 44.9497 13.0991C43.637 11.7551 41.8565 11 40 11H33Z" fill="#FF7262"/>
<path d="M19 18.1667C19 20.0674 19.7375 21.8903 21.0503 23.2343C22.363 24.5783 24.1435 25.3333 26 25.3333H33V11H26C24.1435 11 22.363 11.7551 21.0503 13.0991C19.7375 14.4431 19 16.2659 19 18.1667V18.1667Z" fill="#F24E1E"/>
<path d="M19 32.4999C19 34.4006 19.7375 36.2235 21.0503 37.5675C22.363 38.9115 24.1435 39.6666 26 39.6666H33V25.3333H26C24.1435 25.3333 22.363 26.0883 21.0503 27.4323C19.7375 28.7763 19 30.5992 19 32.4999V32.4999Z" fill="#A259FF"/>
</g>
<defs>
<clipPath id="clip0_14_75">
<rect width="28" height="43" fill="white" transform="translate(19 11)"/>
</clipPath>
</defs>
</svg>
