<svg width="20" height="20" viewBox="0 0 20 20" fill="none" xmlns="http://www.w3.org/2000/svg">
<path d="M1.40625 18.5937C2.8125 20 5.07589 20 9.59821 20L10.4018 20C14.9241 20 17.1875 20 18.5937 18.5937C20 17.1875 20 14.9241 20 10.4018L20 9.59821C20 5.07589 20 2.8125 18.5937 1.40625C17.1875 -7.51289e-07 14.9241 -6.52353e-07 10.4018 -4.54676e-07L9.59821 -4.19551e-07C5.07589 -2.21874e-07 2.8125 -1.22938e-07 1.40625 1.40625C-7.51289e-07 2.8125 -6.52353e-07 5.07589 -4.54677e-07 9.59821L-4.19551e-07 10.4018C-2.21874e-07 14.9241 -1.22938e-07 17.1875 1.40625 18.5937ZM6.08482 16.625L6.08482 14.3437C9.90179 14.2679 11.5179 12.5848 11.8482 11.25L6.08482 11.25L6.08482 9.09821L9.375 9.09821C9.23214 7.78125 7.73214 6.40178 6.08482 5.93303L6.08482 3.78125C6.9375 3.95982 7.75 4.30803 8.46429 4.8125C9.17857 5.31696 9.78125 5.95982 10.2321 6.70982C10.6473 5.875 11.2321 5.13839 11.9554 4.54911C12.6741 3.95536 13.5089 3.52679 14.4063 3.28125L14.4063 5.65179C13.6295 5.86607 12.9286 6.3125 12.4018 6.92411C11.8705 7.54018 11.5357 8.29464 11.433 9.09821L14.4063 9.09821L14.4063 9.35714C14.4063 13.9152 11.2813 16.5179 6.08482 16.625Z" fill="white"/>
</svg>
